<svg width="36" height="28" viewBox="0 0 36 28" fill="none" xmlns="http://www.w3.org/2000/svg">
<rect width="36" height="28" rx="8" fill="#8B5CF6"/>
<path d="M12.5 13.65C12.5 13.3738 12.2761 13.15 12 13.15C11.7239 13.15 11.5 13.3738 11.5 13.65H12.5ZM26.5 13.65C26.5 13.3738 26.2761 13.15 26 13.15C25.7239 13.15 25.5 13.3738 25.5 13.65H26.5ZM15 23.5C14.7239 23.5 14.5 23.7239 14.5 24C14.5 24.2761 14.7239 24.5 15 24.5V23.5ZM23 24.5C23.2761 24.5 23.5 24.2761 23.5 24C23.5 23.7239 23.2761 23.5 23 23.5V24.5ZM19 6.5C20.9838 6.5 22.5 7.93618 22.5 9.60005H23.5C23.5 7.28741 21.4344 5.5 19 5.5V6.5ZM22.5 9.60005V15.0001H23.5V9.60005H22.5ZM22.5 15.0001C22.5 16.664 20.9838 18.1002 19 18.1002V19.1002C21.4344 19.1002 23.5 17.3128 23.5 15.0001H22.5ZM19 18.1002C17.0162 18.1002 15.5 16.664 15.5 15.0001H14.5C14.5 17.3128 16.5656 19.1002 19 19.1002V18.1002ZM15.5 15.0001V9.60005H14.5V15.0001H15.5ZM15.5 9.60005C15.5 7.93618 17.0162 6.5 19 6.5V5.5C16.5656 5.5 14.5 7.28741 14.5 9.60005H15.5ZM11.5 13.65V15H12.5V13.65H11.5ZM11.5 15C11.5 18.8038 14.9087 21.8001 19 21.8001V20.8001C15.3593 20.8001 12.5 18.1551 12.5 15H11.5ZM19 21.8001C23.0913 21.8001 26.5 18.8038 26.5 15H25.5C25.5 18.1551 22.6407 20.8001 19 20.8001V21.8001ZM26.5 15V13.65H25.5V15H26.5ZM18.5 21.3001L18.5 24L19.5 24L19.5 21.3001L18.5 21.3001ZM15 24.5H23V23.5H15V24.5Z" fill="white"/>
</svg>
