<svg width="86" height="38" viewBox="0 0 86 38" fill="none" xmlns="http://www.w3.org/2000/svg">
<rect x="0.5" y="0.5" width="85" height="37" rx="18.5" fill="#171717"/>
<rect x="0.5" y="0.5" width="85" height="37" rx="18.5" stroke="url(#paint0_linear_4302_11727)"/>
<path d="M26.9997 10.75V27.25C23.7913 27.25 21.4073 23.0513 21.4073 23.0513H18.7497C18.2434 23.0513 17.833 22.6409 17.833 22.1346V15.7966C17.833 15.2903 18.2434 14.88 18.7497 14.88H21.4073C21.4073 14.88 23.7913 10.75 26.9997 10.75Z" fill="#8B5CF6" stroke="#8B5CF6" stroke-linejoin="round"/>
<path d="M30.667 14.875C30.9526 15.1301 31.2115 15.4157 31.4389 15.727C32.1056 16.6398 32.5003 17.7727 32.5003 19C32.5003 20.2166 32.1123 21.3406 31.4562 22.2493C31.2247 22.5697 30.9599 22.8634 30.667 23.125" stroke="#8B5CF6" stroke-linecap="round" stroke-linejoin="round"/>
<path d="M31.6914 26.8773C34.3716 25.2775 36.1666 22.3486 36.1666 19.0005C36.1666 15.7044 34.4269 12.8146 31.8157 11.1992" stroke="#8B5CF6" stroke-linecap="round"/>
<path d="M51.88 24.084C51.1427 24.084 50.4567 23.9627 49.822 23.72C49.1967 23.468 48.6507 23.118 48.184 22.67C47.7267 22.2127 47.3673 21.6853 47.106 21.088C46.854 20.4813 46.728 19.8187 46.728 19.1C46.728 18.3813 46.854 17.7233 47.106 17.126C47.3673 16.5193 47.7267 15.992 48.184 15.544C48.6507 15.0867 49.1967 14.7367 49.822 14.494C50.4473 14.242 51.1333 14.116 51.88 14.116C52.6173 14.116 53.2987 14.242 53.924 14.494C54.5493 14.7367 55.0907 15.082 55.548 15.53C56.0147 15.978 56.374 16.5053 56.626 17.112C56.8873 17.7187 57.018 18.3813 57.018 19.1C57.018 19.8187 56.8873 20.4813 56.626 21.088C56.374 21.6947 56.0147 22.222 55.548 22.67C55.0907 23.118 54.5493 23.468 53.924 23.72C53.2987 23.9627 52.6173 24.084 51.88 24.084ZM51.88 23.16C52.468 23.16 53.0093 23.062 53.504 22.866C54.008 22.6607 54.442 22.376 54.806 22.012C55.1793 21.6387 55.4687 21.2093 55.674 20.724C55.8793 20.2293 55.982 19.688 55.982 19.1C55.982 18.512 55.8793 17.9753 55.674 17.49C55.4687 16.9953 55.1793 16.566 54.806 16.202C54.442 15.8287 54.008 15.544 53.504 15.348C53.0093 15.1427 52.468 15.04 51.88 15.04C51.292 15.04 50.746 15.1427 50.242 15.348C49.738 15.544 49.2993 15.8287 48.926 16.202C48.562 16.566 48.2727 16.9953 48.058 17.49C47.8527 17.9753 47.75 18.512 47.75 19.1C47.75 19.6787 47.8527 20.2153 48.058 20.71C48.2727 21.2047 48.562 21.6387 48.926 22.012C49.2993 22.376 49.738 22.6607 50.242 22.866C50.746 23.062 51.292 23.16 51.88 23.16ZM59.3401 24V14.2H60.1941L66.9561 22.712H66.5081V14.2H67.5301V24H66.6761L59.9281 15.488H60.3761V24H59.3401Z" fill="white"/>
<defs>
<linearGradient id="paint0_linear_4302_11727" x1="43" y1="0" x2="43" y2="38" gradientUnits="userSpaceOnUse">
<stop stop-color="white"/>
<stop offset="1" stop-color="white" stop-opacity="0.2"/>
</linearGradient>
</defs>
</svg>
