<svg width="87" height="38" viewBox="0 0 84 38" fill="none" xmlns="http://www.w3.org/2000/svg">
<rect x="0.5" y="0.5" width="83" height="37" rx="18.5" fill="#171717"/>
<rect x="0.5" y="0.5" width="83" height="37" rx="18.5" stroke="url(#paint0_linear_2076_122702)"/>
<path d="M23.0002 10.75V27.25C19.7918 27.25 17.4078 23.0513 17.4078 23.0513H14.7502C14.2439 23.0513 13.8335 22.6409 13.8335 22.1346V15.7966C13.8335 15.2903 14.2439 14.88 14.7502 14.88H17.4078C17.4078 14.88 19.7918 10.75 23.0002 10.75Z" fill="#404040" stroke="#404040" stroke-linejoin="round"/>
<path d="M26 16L31 23" stroke="#404040" stroke-linecap="round"/>
<path d="M31 16L26 23" stroke="#404040" stroke-linecap="round"/>
<path d="M47.88 24.084C47.1427 24.084 46.4567 23.9627 45.822 23.72C45.1967 23.468 44.6507 23.118 44.184 22.67C43.7267 22.2127 43.3673 21.6853 43.106 21.088C42.854 20.4813 42.728 19.8187 42.728 19.1C42.728 18.3813 42.854 17.7233 43.106 17.126C43.3673 16.5193 43.7267 15.992 44.184 15.544C44.6507 15.0867 45.1967 14.7367 45.822 14.494C46.4473 14.242 47.1333 14.116 47.88 14.116C48.6173 14.116 49.2987 14.242 49.924 14.494C50.5493 14.7367 51.0907 15.082 51.548 15.53C52.0147 15.978 52.374 16.5053 52.626 17.112C52.8873 17.7187 53.018 18.3813 53.018 19.1C53.018 19.8187 52.8873 20.4813 52.626 21.088C52.374 21.6947 52.0147 22.222 51.548 22.67C51.0907 23.118 50.5493 23.468 49.924 23.72C49.2987 23.9627 48.6173 24.084 47.88 24.084ZM47.88 23.16C48.468 23.16 49.0093 23.062 49.504 22.866C50.008 22.6607 50.442 22.376 50.806 22.012C51.1793 21.6387 51.4687 21.2093 51.674 20.724C51.8793 20.2293 51.982 19.688 51.982 19.1C51.982 18.512 51.8793 17.9753 51.674 17.49C51.4687 16.9953 51.1793 16.566 50.806 16.202C50.442 15.8287 50.008 15.544 49.504 15.348C49.0093 15.1427 48.468 15.04 47.88 15.04C47.292 15.04 46.746 15.1427 46.242 15.348C45.738 15.544 45.2993 15.8287 44.926 16.202C44.562 16.566 44.2727 16.9953 44.058 17.49C43.8527 17.9753 43.75 18.512 43.75 19.1C43.75 19.6787 43.8527 20.2153 44.058 20.71C44.2727 21.2047 44.562 21.6387 44.926 22.012C45.2993 22.376 45.738 22.6607 46.242 22.866C46.746 23.062 47.292 23.16 47.88 23.16ZM56.2641 18.946H61.4441V19.842H56.2641V18.946ZM56.3761 24H55.3401V14.2H62.0601V15.096H56.3761V24ZM65.1235 18.946H70.3035V19.842H65.1235V18.946ZM65.2355 24H64.1995V14.2H70.9195V15.096H65.2355V24Z" fill="white"/>
<defs>
<linearGradient id="paint0_linear_2076_122702" x1="42" y1="0" x2="42" y2="38" gradientUnits="userSpaceOnUse">
<stop stop-color="white"/>
<stop offset="1" stop-color="white" stop-opacity="0.2"/>
</linearGradient>
</defs>
</svg>
